<svg width="32" height="32" viewBox="0 0 32 32" fill="none" xmlns="http://www.w3.org/2000/svg">
<g clip-path="url(#clip0_43162_45)">
<path d="M19.0625 16C19.0625 17.6937 17.6937 19.0625 16 19.0625C14.3062 19.0625 12.9375 17.6937 12.9375 16C12.9375 14.3062 14.3062 12.9375 16 12.9375C17.6937 12.9375 19.0625 14.3062 19.0625 16Z" fill="#B3B3B3"/>
<path d="M23.1625 10.5812C23.0125 10.1812 22.7813 9.81865 22.475 9.5249C22.1813 9.21865 21.8188 8.9874 21.4188 8.8374C21.0938 8.7124 20.6063 8.5624 19.7125 8.51865C18.7438 8.4749 18.45 8.4624 16 8.4624C13.5438 8.4624 13.2563 8.46865 12.2875 8.51865C11.3938 8.5624 10.9063 8.7124 10.5813 8.8374C10.1813 8.9874 9.81877 9.21865 9.52502 9.5249C9.21877 9.81865 8.98752 10.1812 8.83752 10.5812C8.71252 10.9062 8.56252 11.3937 8.51877 12.2874C8.47502 13.2562 8.46252 13.5437 8.46252 15.9999C8.46252 18.4499 8.47502 18.7437 8.51877 19.7124C8.56252 20.6062 8.70627 21.0937 8.83752 21.4187C8.98752 21.8187 9.21877 22.1812 9.52502 22.4749C9.81877 22.7812 10.1813 23.0124 10.5813 23.1624C10.9063 23.2874 11.3938 23.4374 12.2875 23.4812C13.2563 23.5249 13.5438 23.5374 16 23.5374C18.4563 23.5374 18.7438 23.5312 19.7125 23.4812C20.6063 23.4374 21.0938 23.2937 21.4188 23.1624C22.2188 22.8562 22.8563 22.2187 23.1625 21.4187C23.2875 21.0937 23.4375 20.6062 23.4813 19.7124C23.525 18.7437 23.5375 18.4499 23.5375 15.9999C23.5375 13.5437 23.5313 13.2562 23.4813 12.2874C23.4375 11.3937 23.2875 10.9062 23.1625 10.5812ZM16 20.7187C13.3938 20.7187 11.2813 18.6062 11.2813 15.9999C11.2813 13.3937 13.3938 11.2812 16 11.2812C18.6063 11.2812 20.7188 13.3937 20.7188 15.9999C20.7188 18.6062 18.6063 20.7187 16 20.7187ZM20.9063 12.1999C20.3 12.1999 19.8063 11.7062 19.8063 11.0999C19.8063 10.4937 20.3 9.9999 20.9063 9.9999C21.5125 9.9999 22.0063 10.4937 22.0063 11.0999C22.0063 11.7062 21.5125 12.1999 20.9063 12.1999Z" fill="#B3B3B3"/>
<path d="M16 0C7.1625 0 0 7.1625 0 16C0 24.8375 7.1625 32 16 32C24.8375 32 32 24.8375 32 16C32 7.1625 24.8375 0 16 0ZM25.1313 19.7875C25.0875 20.7625 24.9312 21.4312 24.7062 22.0187C24.2312 23.25 23.2562 24.2312 22.0187 24.7062C21.4375 24.9312 20.7688 25.0875 19.7875 25.1313C18.8062 25.175 18.4937 25.1875 16 25.1875C13.5063 25.1875 13.1937 25.175 12.2125 25.1313C11.2375 25.0875 10.5687 24.9312 9.98125 24.7062C9.36875 24.475 8.8125 24.1125 8.35625 23.6437C7.8875 23.1875 7.525 22.6312 7.29375 22.0187C7.06875 21.4375 6.9125 20.7688 6.86875 19.7875C6.825 18.8062 6.8125 18.4937 6.8125 16C6.8125 13.5063 6.825 13.1937 6.86875 12.2125C6.9125 11.2375 7.06875 10.5687 7.29375 9.98125C7.525 9.36875 7.8875 8.8125 8.35625 8.35625C8.8125 7.8875 9.36875 7.525 9.98125 7.29375C10.5687 7.06875 11.2312 6.9125 12.2125 6.86875C13.1937 6.825 13.5063 6.8125 16 6.8125C18.4937 6.8125 18.8062 6.825 19.7875 6.86875C20.7625 6.9125 21.4312 7.06875 22.0187 7.29375C22.6312 7.525 23.1875 7.8875 23.6437 8.35625C24.1125 8.8125 24.475 9.36875 24.7062 9.98125C24.9312 10.5687 25.0875 11.2312 25.1313 12.2125C25.175 13.1937 25.1875 13.5063 25.1875 16C25.1875 18.4937 25.175 18.8062 25.1313 19.7875Z" fill="#B3B3B3"/>
</g>
<defs>
<clipPath id="clip0_43162_45">
<rect width="32" height="32" fill="white"/>
</clipPath>
</defs>
</svg>
